HIERARCHY
ROOT Hips
{
  OFFSET 0 89.5177 0.535
  CHANNELS 6 Xposition Yposition Zposition Zrotation Xrotation Yrotation
  JOINT Spine
  {
    OFFSET 12.0259 -0.162855 1.69034e-005
    CHANNELS 3 Zrotation Xrotation Yrotation
    JOINT Spine1
    {
      OFFSET 15.3169 -0.0121922 0
      CHANNELS 3 Zrotation Xrotation Yrotation
      JOINT Spine2
      {
        OFFSET 15.3176 -0.0121908 0
        CHANNELS 3 Zrotation Xrotation Yrotation
        JOINT Neck
        {
          OFFSET 19.9142 1.56338 0
          CHANNELS 3 Zrotation Xrotation Yrotation
          JOINT Head
          {
            OFFSET 6.92651 0 0
            CHANNELS 3 Zrotation Xrotation Yrotation
            End Site
            {
              OFFSET 20.7666 0 0
            }
          }
          JOINT LeftShoulder
          {
            OFFSET -6.20654 0.708824 7.28219
            CHANNELS 3 Zrotation Xrotation Yrotation
            JOINT LeftArm
            {
              OFFSET 14.108 0 -1.52588e-005
              CHANNELS 3 Zrotation Xrotation Yrotation
              JOINT LeftForeArm
              {
                OFFSET 28.5802 0 0
                CHANNELS 3 Zrotation Xrotation Yrotation
                JOINT LeftHand
                {
                  OFFSET 27.092 0 0
                  CHANNELS 3 Zrotation Xrotation Yrotation
                  End Site
                  {
                    OFFSET 9.55928 -0.186424 0.145352
                  }
                }
              }
            }
          }
          JOINT RightShoulder
          {
            OFFSET -6.20654 0.708866 -7.28218
            CHANNELS 3 Zrotation Xrotation Yrotation
            JOINT RightArm
            {
              OFFSET 14.108 0 1.52588e-005
              CHANNELS 3 Zrotation Xrotation Yrotation
              JOINT RightForeArm
              {
                OFFSET 28.5802 0 0
                CHANNELS 3 Zrotation Xrotation Yrotation
                JOINT RightHand
                {
                  OFFSET 27.092 0 0
                  CHANNELS 3 Zrotation Xrotation Yrotation
                  End Site
                  {
                    OFFSET 9.55929 -0.186417 -0.145354
                  }
                }
              }
            }
          }
        }
      }
    }
  }
  JOINT LeftUpLeg
  {
    OFFSET 0.005 -0.535 8.837
    CHANNELS 3 Zrotation Xrotation Yrotation
    JOINT LeftLeg
    {
      OFFSET 39.9035 0 0
      CHANNELS 3 Zrotation Xrotation Yrotation
      JOINT LeftFoot
      {
        OFFSET 39.6689 0 0
        CHANNELS 3 Zrotation Xrotation Yrotation
        JOINT LeftToe
        {
          OFFSET 10.1624 13.6296 0
          CHANNELS 3 Zrotation Xrotation Yrotation
          End Site
          {
            OFFSET 8.38147 0 0
          }
        }
      }
    }
  }
  JOINT RightUpLeg
  {
    OFFSET 0.005 -0.535 -8.837
    CHANNELS 3 Zrotation Xrotation Yrotation
    JOINT RightLeg
    {
      OFFSET 39.9035 0 0
      CHANNELS 3 Zrotation Xrotation Yrotation
      JOINT RightFoot
      {
        OFFSET 39.6689 0 0
        CHANNELS 3 Zrotation Xrotation Yrotation
        JOINT RightToe
        {
          OFFSET 10.1624 13.6296 0
          CHANNELS 3 Zrotation Xrotation Yrotation
          End Site
          {
            OFFSET 8.38147 0 0
          }
        }
      }
    }
  }
}
MOTION
Frames:	15
Frame Time:	0.0333333
384.176 90.4907 -23.2509 114.426 -85.0502 25.0332 0.732843 -0.371859 0.178659 1.46689 -0.740928 0.362232 1.46689 -0.740928 0.362223 -8.30828e-012 -9.0191e-006 -5.27751e-005 14.2878 11.2466 -9.17565 -179.66 -8.10487 -87.5899 105.346 -74.5042 98.4008 -2.05058 2.38542e-015 9.54166e-015 -35.3933 -16.9003 -35.5841 179.956 1.3741 91.8219 54.6276 54.1065 -50.3533 -21.1423 6.36111e-015 -2.18663e-015 -19.4942 32.1632 32.4465 -3.29347 -0.798417 177.906 -11.1025 0 1.98785e-016 14.442 13.0503 -12.2288 90 -3.18055e-015 4.77083e-015 -2.73738 -8.20548 175.431 -11.9424 0 -3.97569e-016 9.39459 -8.00381 8.9587 90 -1.59028e-015 7.95139e-016 
383.825 90.4395 -23.4473 108.865 -85.1395 19.7096 0.792815 -0.405033 0.0741669 1.58621 -0.808528 0.154098 1.58621 -0.808528 0.154088 -8.30748e-012 -9.0191e-006 -5.27751e-005 14.894 11.3435 -8.95674 -179.667 -8.11422 -87.6392 104.747 -74.4962 97.7994 -2.28221 0 -3.18055e-015 -35.5607 -16.6971 -35.4954 179.957 1.36688 91.8126 54.3719 54.034 -50.0904 -21.3051 0 1.68967e-015 -19.4903 32.1709 32.4728 -2.6837 -1.07542 177.441 -11.1186 -3.97569e-016 -0 14.5767 12.9196 -11.9896 90 -1.19271e-015 1.59028e-015 -3.28565 -8.43258 174.825 -13.9747 -7.95139e-016 -0 9.95021 -8.0186 8.97108 90 9.19379e-016 7.95139e-016 
383.468 90.3949 -23.6479 102.301 -85.1656 13.2967 0.856995 -0.443084 -0.00338842 1.71404 -0.885697 1.07096e-005 1.71404 -0.885697 1.41778e-006 -8.30828e-012 -9.0191e-006 -5.27751e-005 15.7098 11.4578 -8.90876 -179.654 -8.14486 -87.5612 103.332 -74.5282 96.5605 -2.59074 -6.4605e-016 -0 -35.6233 -16.6345 -35.2588 179.955 1.37721 91.8855 54.2688 54.0365 -50.0009 -21.5214 -3.18055e-015 8.94531e-016 -19.3748 32.1273 32.2959 -2.11652 -1.20725 177.078 -11.3688 0 1.98785e-016 14.8712 12.9596 -11.872 90 2.08724e-015 -0 -3.9934 -8.98193 174.239 -16.2681 -7.95139e-016 -5.96354e-016 10.0529 -8.02425 8.96612 90 1.63997e-015 -0 
383.096 90.3668 -23.8434 96.2492 -85.1464 7.33467 0.911959 -0.466681 -0.067573 1.82346 -0.933905 -0.127557 1.82346 -0.933905 -0.127566 -8.30748e-012 -9.0191e-006 -5.27751e-005 16.7925 11.3945 -9.12222 -179.649 -8.22568 -87.5448 101.054 -74.309 94.6917 -3.04039 1.3946e-015 9.54166e-015 -35.5494 -16.6757 -35.13 179.952 1.44673 91.9098 54.0293 53.9683 -49.8187 -21.8697 -3.18055e-015 5.46658e-016 -19.4456 32.1554 32.2991 -1.55459 -1.30069 176.768 -11.5318 0 -9.93923e-017 15.1151 12.9791 -11.7786 90 -8.94531e-016 -3.18055e-015 -5.02209 -9.87985 173.634 -18.8914 0 1.39149e-015 9.91365 -8.07024 8.67143 90 7.20594e-016 -1.98785e-016 
382.754 90.3449 -23.9605 92.6522 -85.0222 3.74059 0.927824 -0.492665 -0.104866 1.85485 -0.986489 -0.201591 1.85485 -0.986489 -0.201601 -8.30748e-012 -9.0191e-006 -5.27751e-005 17.8775 11.4393 -9.3665 -179.63 -8.23471 -87.4211 98.8436 -74.1619 92.8435 -3.27375 -5.46658e-016 3.18055e-015 -35.3529 -16.7948 -35.0454 179.947 1.50811 92.0278 54.1322 53.9171 -49.9421 -22.1545 -6.36111e-015 6.95746e-016 -19.4188 32.1045 32.0568 -1.28681 -1.44256 176.544 -11.7658 0 2.98177e-016 15.3351 12.9752 -11.6446 90 -1.2921e-015 1.59028e-015 -6.44344 -10.9386 173.182 -21.7447 2.38542e-015 7.95139e-016 9.75997 -7.97492 7.22047 90 7.45443e-017 1.98785e-016 
382.434 90.3156 -24.0487 89.5495 -84.9734 0.652289 0.944559 -0.510955 -0.153977 1.88786 -1.0239 -0.299368 1.88786 -1.0239 -0.299378 -8.30748e-012 -9.0191e-006 -5.27751e-005 18.8007 11.6027 -9.60708 -179.625 -8.2157 -87.3789 98.9882 -74.108 93.1263 -3.03543 3.7738e-016 6.36111e-015 -35.3867 -16.668 -34.8842 179.945 1.51083 92.0734 54.1078 53.9778 -49.9901 -22.1393 6.36111e-015 4.37326e-015 -19.5703 32.3863 32.3346 -1.12925 -1.37116 176.33 -12.1527 7.95139e-016 9.93923e-017 15.659 13.0936 -11.5754 90 4.96962e-016 -0 -8.13063 -12.0024 172.629 -24.8313 3.18056e-015 1.19271e-015 9.39588 -7.92245 5.71299 90 2.98177e-016 -0 
382.152 90.2921 -24.1581 85.6252 -85.0428 -3.27819 0.98699 -0.510084 -0.202601 1.97229 -1.02311 -0.39625 1.97229 -1.02311 -0.396259 -8.30748e-012 -9.0191e-006 -5.27751e-005 19.471 11.9891 -9.73835 -179.624 -8.13944 -87.3466 99.4267 -74.0855 93.5096 -2.78695 -1.3418e-015 3.18055e-015 -35.3759 -16.5878 -34.979 179.947 1.44256 92.1096 54.0004 53.9757 -49.9269 -22.0033 0 7.45443e-016 -19.5714 32.3024 32.3608 -0.798549 -1.26263 176.167 -12.376 -1.59028e-015 1.98785e-016 15.8663 13.1359 -11.4884 90 1.19271e-015 -0 -9.59401 -12.7358 172.173 -27.6119 0 -7.95139e-016 8.74848 -7.74935 4.06393 90 2.48481e-016 -7.95139e-016 
381.941 90.2702 -24.2717 81.9358 -85.0597 -7.0281 1.03055 -0.523278 -0.245264 2.05898 -1.0504 -0.480948 2.05898 -1.0504 -0.480958 -8.30828e-012 -9.0191e-006 -5.27751e-005 19.9911 12.2877 -9.90113 -179.611 -7.98433 -87.2032 99.2035 -74.2597 93.0336 -2.5959 -3.72721e-015 -3.18055e-015 -35.3553 -16.6641 -35.0582 179.948 1.38813 92.14 53.8641 53.8861 -49.8994 -21.8999 0 -2.68359e-015 -19.4644 32.2916 32.2857 -0.475171 -1.26117 176.086 -12.5553 -7.95139e-016 8.94531e-016 16.0239 13.0896 -11.3094 90 0 -1.59028e-015 -10.9987 -13.3863 171.761 -30.2541 -3.18056e-015 -1.59028e-015 8.11534 -7.33943 3.1382 90 9.93923e-017 -1.59028e-015 
381.772 90.2692 -24.438 78.3924 -84.9686 -10.6864 1.07018 -0.537979 -0.282913 2.13784 -1.08067 -0.555608 2.13784 -1.08067 -0.555617 -8.30748e-012 -9.0191e-006 -5.27751e-005 20.3339 12.5268 -9.99376 -179.611 -7.96388 -87.1974 99.4716 -74.288 93.2722 -2.50888 -9.93923e-017 3.18055e-015 -35.4127 -16.5704 -35.1185 179.949 1.40005 92.083 53.8493 53.8423 -49.9198 -21.8565 -6.36111e-015 -1.49089e-015 -19.2482 32.3184 32.072 -0.0312188 -1.41252 176.091 -12.5287 -3.97569e-016 1.09332e-015 16.0433 12.9871 -11.1873 90 1.39149e-015 -0 -12.1208 -14.053 171.391 -32.5096 0 -2.38542e-015 7.57519 -6.62829 3.11478 90 1.98785e-016 -0 
381.647 90.2818 -24.6257 76.1999 -84.7621 -13.0493 1.08689 -0.561747 -0.307097 2.17092 -1.12874 -0.603369 2.17092 -1.12874 -0.603378 -8.30748e-012 -9.0191e-006 -5.27751e-005 20.7647 12.6127 -9.99473 -179.61 -8.00346 -87.1993 99.1686 -74.2507 93.0905 -2.6065 -1.59028e-015 -6.36111e-015 -35.3949 -16.5058 -34.9944 179.947 1.45083 92.0754 54.0728 53.7651 -50.1491 -21.7861 -3.18055e-015 -4.47266e-016 -19.4475 32.4033 32.2844 0.344504 -1.60959 176.193 -12.482 0 -1.98785e-016 16.0614 12.94 -11.1482 90 2.5842e-015 -0 -12.7329 -14.8385 171.211 -33.8629 3.18056e-015 -7.95139e-016 7.09329 -5.8499 3.13371 90 -1.98785e-016 7.95139e-016 
381.577 90.3045 -24.8474 74.4888 -84.5508 -14.9599 1.09537 -0.57072 -0.324993 2.18766 -1.14707 -0.638907 2.18766 -1.14707 -0.638917 -8.30669e-012 -9.0191e-006 -5.27751e-005 21.0854 12.5866 -9.88592 -179.604 -8.01824 -87.1646 98.1076 -74.2862 92.207 -2.77022 -6.95746e-016 -0 -35.3795 -16.5904 -35.0304 179.946 1.49006 92.0827 54.4389 53.73 -50.3607 -21.5938 0 -1.98785e-016 -19.5962 32.4044 32.4318 0.721956 -1.73658 176.378 -12.4281 0 -7.95139e-016 16.1295 12.9653 -11.2201 90 1.68967e-015 -0 -12.7884 -15.6151 171.245 -34.3736 1.59028e-015 -1.59028e-015 6.78565 -4.99863 3.19091 90 7.95139e-016 -1.59028e-015 
381.52 90.3208 -25.0936 73.4656 -84.3416 -16.1356 1.07926 -0.582364 -0.353347 2.15509 -1.1708 -0.695558 2.15509 -1.1708 -0.695567 -8.30748e-012 -9.0191e-006 -5.27751e-005 21.3636 12.5409 -9.72117 -179.596 -8.08224 -87.1318 97.9712 -74.4503 92.2242 -2.78551 9.93923e-017 6.36111e-015 -35.3942 -16.5902 -35.0103 179.946 1.45581 92.116 55.1457 53.8637 -50.7657 -21.2653 3.18055e-015 -1.68967e-015 -19.4137 32.2253 32.2362 1.10533 -1.97858 176.511 -12.2629 -3.97569e-016 -5.96354e-016 16.1217 12.9008 -11.244 90 -9.93923e-017 -1.59028e-015 -12.3765 -16.3846 171.361 -34.1427 1.59028e-015 7.95139e-016 6.77166 -4.35192 3.27201 90 3.97569e-016 -3.18055e-015 
381.486 90.3265 -25.3586 72.2247 -84.2503 -17.4884 1.05736 -0.569241 -0.395899 2.11093 -1.1452 -0.781126 2.11093 -1.1452 -0.781136 -8.30708e-012 -9.0191e-006 -5.27751e-005 21.5502 12.3939 -9.41029 -179.599 -8.11156 -87.1599 97.715 -74.5903 92.0017 -2.83241 -4.96962e-016 6.36111e-015 -35.4497 -16.6344 -35.0437 179.946 1.45743 92.1226 55.5068 53.9134 -50.9307 -20.9232 -3.18055e-015 -0 -19.6172 32.4527 32.6511 1.52765 -2.16688 176.613 -12.051 7.95139e-016 1.19271e-015 16.11 12.7776 -11.2279 90 -2.33572e-015 -0 -11.5539 -16.9802 171.573 -33.3189 -1.59028e-015 -7.95139e-016 6.99473 -3.98544 3.35678 90 -3.97569e-016 -1.59028e-015 
381.479 90.3256 -25.6181 70.4877 -84.3212 -19.3237 1.03686 -0.533897 -0.436338 2.06976 -1.07511 -0.862842 2.06976 -1.07511 -0.862851 -8.30748e-012 -9.0191e-006 -5.27751e-005 21.6523 12.1374 -9.23507 -179.586 -8.25427 -87.1182 99.0074 -74.8395 93.3208 -2.76554 0 -0 -35.5252 -16.5424 -34.9891 179.947 1.43282 92.1198 55.7595 53.9471 -51.0018 -20.7439 3.18055e-015 -7.95139e-016 -19.4461 32.4563 32.5398 1.95722 -2.14225 176.72 -11.8592 -7.95139e-016 9.93923e-017 16.1357 12.6705 -11.225 90 2.98177e-016 -3.18055e-015 -10.3856 -17.3196 171.908 -31.9606 -3.18056e-015 -1.59028e-015 7.35686 -4.0625 3.40282 90 -1.59028e-015 1.59028e-015 
381.477 90.315 -25.8539 68.5028 -84.6054 -21.3633 1.00834 -0.46803 -0.472526 2.0129 -0.943813 -0.936631 2.0129 -0.943813 -0.936641 -8.30708e-012 -9.0191e-006 -5.27751e-005 21.5962 12.085 -9.08382 -179.567 -8.41092 -87.0452 98.9737 -74.9539 93.2864 -2.84822 7.95139e-016 3.18055e-015 -35.5594 -16.5779 -35.0847 179.947 1.41346 92.1552 55.9364 53.9563 -51.1221 -20.7527 0 3.97569e-016 -19.4779 32.557 32.6623 2.38565 -2.09908 176.756 -11.5341 0 -1.98785e-016 16.0577 12.4213 -11.1099 90 2.98177e-016 -1.59028e-015 -9.16798 -17.4349 172.234 -30.3562 -6.36111e-015 -7.95139e-016 7.74939 -4.50795 3.43456 90 -3.97569e-016 -0 
